<svg xmlns="http://www.w3.org/2000/svg" width="139" height="168" viewBox="0 0 139 168">
  <g id="logo" transform="translate(-113 -235)">
    <text id="Flowa" transform="translate(119 390)" fill="#fff" font-size="52" font-family="SegoeUI, Segoe UI"><tspan x="0" y="0">Flowa</tspan></text>
    <g id="Group_2" data-name="Group 2" transform="translate(113 234.882)">
      <g id="Ellipse_1" data-name="Ellipse 1" transform="translate(41 41.118)" fill="none" stroke="#fff" stroke-width="4">
        <circle cx="28" cy="28" r="28" stroke="none"/>
        <circle cx="28" cy="28" r="26" fill="none"/>
      </g>
      <g id="Group_1" data-name="Group 1">
        <g id="Ellipse_2" data-name="Ellipse 2" transform="translate(56 0.118)" fill="none" stroke="#fff" stroke-width="4">
          <circle cx="13.5" cy="13.5" r="13.5" stroke="none"/>
          <circle cx="13.5" cy="13.5" r="11.5" fill="none"/>
        </g>
        <g id="Ellipse_3" data-name="Ellipse 3" transform="translate(97 14.118)" fill="none" stroke="#fff" stroke-width="4">
          <circle cx="13.5" cy="13.5" r="13.5" stroke="none"/>
          <circle cx="13.5" cy="13.5" r="11.5" fill="none"/>
        </g>
        <g id="Ellipse_6" data-name="Ellipse 6" transform="translate(14 14.118)" fill="none" stroke="#fff" stroke-width="4">
          <circle cx="13.5" cy="13.5" r="13.5" stroke="none"/>
          <circle cx="13.5" cy="13.5" r="11.5" fill="none"/>
        </g>
        <g id="Ellipse_4" data-name="Ellipse 4" transform="translate(110 56.118)" fill="none" stroke="#fff" stroke-width="4">
          <ellipse cx="14.5" cy="13.5" rx="14.5" ry="13.5" stroke="none"/>
          <ellipse cx="14.5" cy="13.5" rx="12.5" ry="11.5" fill="none"/>
        </g>
        <g id="Ellipse_5" data-name="Ellipse 5" transform="translate(0 56.118)" fill="none" stroke="#fff" stroke-width="4">
          <circle cx="13.5" cy="13.5" r="13.5" stroke="none"/>
          <circle cx="13.5" cy="13.5" r="11.5" fill="none"/>
        </g>
      </g>
    </g>
  </g>
</svg>
